<svg width="36" height="36" viewBox="0 0 36 36" fill="none" xmlns="http://www.w3.org/2000/svg">
<g clip-path="url(#clip0_439_7626)">
<path d="M3.88329 35.9344C3.91214 35.6564 3.9305 35.4229 3.94361 35.2367C3.96197 34.9403 3.98033 34.5993 3.99345 34.2111C4.00656 33.8229 4.01706 33.4557 4.0223 33.1069C4.20329 33.1121 4.33968 33.1121 4.43148 33.1121C4.51542 33.1121 4.64919 33.1121 4.83804 33.1069C4.81181 33.4295 4.79083 33.7364 4.77771 34.0302C4.76197 34.3239 4.74886 34.6597 4.74361 35.0374C4.73574 35.4151 4.73312 35.7141 4.73312 35.9344C4.56525 35.9318 4.42886 35.9292 4.32394 35.9292C4.22689 35.9292 4.08001 35.9292 3.88591 35.9344H3.88329Z" fill="#981E22"/>
<path d="M6.26492 35.9344L6.32787 35.1239L6.3882 33.9148L6.42755 32.7239H6.05246L5.88197 32.7292L5.23935 32.7475C5.25509 32.4826 5.26296 32.2807 5.26558 32.1416C5.80066 32.1469 6.35935 32.1469 6.94427 32.1469H7.94361L8.47869 32.1416C8.46033 32.4039 8.45246 32.6059 8.45246 32.7475C8.11673 32.7318 7.7941 32.7239 7.48722 32.7239H7.27214L7.23804 33.2328L7.15673 35.1869L7.15148 35.5148C7.14886 35.6485 7.14886 35.7902 7.14886 35.937L6.72394 35.9318C6.67673 35.9318 6.5246 35.9318 6.26755 35.937L6.26492 35.9344Z" fill="#9A7040"/>
<path d="M8.6859 35.9344L8.76983 34.6151L8.79344 33.8492C8.79606 33.6918 8.79868 33.5344 8.79868 33.3744C8.79868 33.3456 8.79868 33.259 8.79344 33.1095C8.96655 33.1148 9.09246 33.1148 9.17377 33.1148C9.26819 33.1148 9.39409 33.1148 9.54885 33.1095L9.53311 33.503C9.60393 33.4033 9.66163 33.3298 9.71147 33.28C9.76131 33.2302 9.81639 33.1882 9.87934 33.1541C9.94229 33.1174 10.0105 33.0911 10.0866 33.0728C10.16 33.0544 10.2387 33.0439 10.32 33.0439C10.3934 33.0439 10.4695 33.0518 10.5456 33.0675C10.5456 33.2433 10.5534 33.4636 10.5692 33.7312C10.4616 33.6971 10.3646 33.6813 10.2754 33.6813C10.1679 33.6813 10.0761 33.6971 9.99475 33.7285C9.91344 33.7626 9.84 33.8098 9.77442 33.8754C9.70885 33.941 9.65639 34.0223 9.61442 34.1193C9.58032 34.198 9.55409 34.2977 9.53836 34.421C9.52 34.518 9.50688 34.6807 9.49639 34.9167C9.4859 35.1502 9.48065 35.3784 9.48065 35.6066C9.48065 35.6931 9.48327 35.8033 9.48852 35.9344C9.34688 35.9318 9.21836 35.9292 9.10295 35.9292C8.98754 35.9292 8.85114 35.9292 8.69114 35.9344H8.6859Z" fill="#9A7040"/>
<path d="M13.7744 35.9344C13.6118 35.9318 13.4859 35.9292 13.3993 35.9292C13.2892 35.9292 13.1659 35.9292 13.0269 35.9344L13.0321 35.4728C12.9797 35.5515 12.9351 35.6144 12.8957 35.659C12.8564 35.7062 12.8039 35.7508 12.7436 35.798C12.6807 35.8426 12.6125 35.8793 12.5364 35.9056C12.463 35.9318 12.3764 35.9554 12.282 35.9738C12.1849 35.9895 12.0853 36 11.9751 36C11.7679 36 11.5869 35.9685 11.4321 35.9082C11.2774 35.8479 11.1567 35.7561 11.0649 35.6354C10.9757 35.5148 10.9312 35.339 10.9312 35.1108V35.0531L10.9757 34.3344L11.0177 33.3902C11.0203 33.3141 11.0203 33.2197 11.0203 33.1069C11.1961 33.1121 11.3351 33.1121 11.4348 33.1121C11.5397 33.1121 11.6682 33.1121 11.8177 33.1069L11.7259 34.3738C11.7207 34.4734 11.7154 34.5548 11.7128 34.623C11.7102 34.6911 11.7075 34.7384 11.7075 34.7672C11.7075 34.901 11.7285 35.0111 11.7679 35.0977C11.8072 35.1843 11.878 35.2525 11.9751 35.2971C12.0748 35.3443 12.1797 35.3652 12.2925 35.3652C12.4053 35.3652 12.5023 35.3443 12.5967 35.3049C12.6833 35.2682 12.7593 35.2157 12.8197 35.1502C12.8826 35.082 12.9325 34.9928 12.9771 34.88C13.0085 34.7987 13.0321 34.6859 13.0479 34.5416C13.061 34.4393 13.0715 34.2662 13.082 34.0197C13.0977 33.718 13.1056 33.4138 13.1108 33.1043C13.2971 33.1095 13.4387 33.1095 13.5357 33.1095C13.6459 33.1095 13.7718 33.1095 13.9082 33.1043C13.8872 33.3692 13.8636 33.7023 13.84 34.0984C13.8164 34.497 13.8007 34.8223 13.7902 35.082C13.7823 35.3416 13.7744 35.6249 13.7666 35.9318L13.7744 35.9344Z" fill="#9A7040"/>
<path d="M14.3777 35.8767L14.32 35.2708C14.5036 35.3443 14.6584 35.3967 14.7843 35.4256C14.9102 35.4544 15.0282 35.4675 15.1331 35.4675C15.238 35.4675 15.3298 35.4544 15.4033 35.4308C15.4741 35.4046 15.5318 35.3679 15.5659 35.3207C15.6026 35.2708 15.6184 35.221 15.6184 35.1659C15.6184 35.1423 15.6184 35.1213 15.6131 35.1003C15.6079 35.0793 15.6 35.0584 15.5869 35.0374C15.5738 35.0164 15.5606 34.9928 15.5449 34.9744C15.5292 34.9561 15.5056 34.9325 15.4793 34.9062C15.4505 34.8826 15.4111 34.8485 15.3587 34.8118L15.2065 34.6911C15.0597 34.5784 14.9495 34.4892 14.8734 34.4236C14.7974 34.358 14.7318 34.2925 14.6793 34.2243C14.6269 34.1561 14.5875 34.0852 14.5613 34.0092C14.5351 33.9357 14.5193 33.857 14.5193 33.781C14.5193 33.6472 14.5613 33.5187 14.6426 33.3954C14.7265 33.2721 14.8472 33.183 15.0046 33.1279C15.1646 33.0728 15.3482 33.0439 15.5633 33.0439C15.8072 33.0439 16.0905 33.0754 16.4079 33.1331L16.442 33.7075C16.2269 33.621 16.0223 33.5764 15.8229 33.5764C15.7154 33.5764 15.621 33.5869 15.5423 33.6105C15.461 33.6315 15.4033 33.6656 15.3692 33.7075C15.3351 33.7521 15.3167 33.7993 15.3167 33.8544C15.3167 33.8859 15.322 33.9174 15.3325 33.9462C15.3456 33.9777 15.3639 34.0092 15.3902 34.0433C15.419 34.0774 15.4505 34.1089 15.4872 34.1377C15.5239 34.1666 15.6 34.2269 15.7128 34.3134C15.8282 34.4 15.9279 34.4787 16.0144 34.5495C16.101 34.6177 16.1718 34.6885 16.2269 34.762C16.282 34.8328 16.3239 34.9089 16.3554 34.9902C16.3843 35.0715 16.4 35.1528 16.4 35.2367C16.4 35.3757 16.358 35.5043 16.2715 35.6223C16.1849 35.7403 16.0564 35.8348 15.8833 35.9003C15.7102 35.9659 15.5161 36 15.301 36C15.1882 36 15.0544 35.9895 14.8918 35.9738C14.7318 35.9554 14.5613 35.9239 14.3777 35.8767Z" fill="#9A7040"/>
<path d="M20.122 35.2367C20.08 35.4544 20.0433 35.6748 20.0144 35.9003C19.802 35.9371 19.6079 35.9633 19.4321 35.9764C19.2564 35.9895 19.1043 35.9974 18.9784 35.9974C18.6977 35.9974 18.4328 35.958 18.181 35.8793C17.9292 35.8033 17.6984 35.68 17.4964 35.5121C17.2918 35.3443 17.1449 35.1423 17.0531 34.9036C16.9613 34.6649 16.9167 34.4026 16.9167 34.1193C16.9167 33.8125 16.9718 33.5266 17.082 33.2669C17.1921 33.0046 17.3495 32.7869 17.5541 32.6059C17.7587 32.4275 18.0026 32.2938 18.2833 32.2046C18.5639 32.118 18.8551 32.0734 19.162 32.0734C19.4688 32.0734 19.7915 32.1102 20.1482 32.181C20.1534 32.3462 20.1587 32.4616 20.1639 32.5298L20.1823 32.8262C19.9725 32.7659 19.7967 32.7266 19.6577 32.703C19.5187 32.6793 19.3849 32.6689 19.259 32.6689C19.0597 32.6689 18.8708 32.7003 18.6872 32.7607C18.5036 32.821 18.3436 32.918 18.202 33.0492C18.0629 33.1803 17.9554 33.3403 17.8793 33.5266C17.8059 33.7128 17.7666 33.9069 17.7666 34.1089C17.7666 34.3502 17.8138 34.5679 17.9056 34.7567C17.9974 34.9482 18.1469 35.103 18.3541 35.221C18.5587 35.339 18.8131 35.3994 19.1174 35.3994C19.398 35.3994 19.7338 35.3443 20.1272 35.2341L20.122 35.2367Z" fill="#981E22"/>
<path d="M20.6544 35.9344L20.7253 35.0321L20.7961 33.739L20.838 32.1416C21.0007 32.1469 21.1344 32.1469 21.242 32.1469C21.3836 32.1469 21.5148 32.1469 21.6433 32.1416L21.5934 32.8052C21.583 32.9705 21.5672 33.2328 21.5489 33.5948C21.6066 33.5056 21.659 33.44 21.6984 33.3954C21.7377 33.3508 21.7823 33.3115 21.8321 33.2748C21.882 33.2354 21.9318 33.2039 21.9843 33.1777C22.0367 33.1515 22.0971 33.1305 22.1679 33.1095C22.2387 33.0885 22.3148 33.0728 22.3987 33.0623C22.4853 33.0518 22.5718 33.0466 22.661 33.0466C22.8157 33.0466 22.9626 33.0649 23.1043 33.099C23.2459 33.1331 23.3666 33.1934 23.4715 33.2774C23.5738 33.3613 23.642 33.4584 23.6813 33.5685C23.718 33.6813 23.739 33.7967 23.739 33.92C23.739 33.9987 23.7338 34.122 23.7259 34.2898L23.6577 35.5016C23.6525 35.6275 23.6498 35.7718 23.6498 35.937C23.5003 35.9344 23.3666 35.9318 23.2512 35.9318C23.1279 35.9318 22.9862 35.9318 22.8262 35.937C22.8525 35.7193 22.8787 35.4203 22.9049 35.0452C22.9312 34.6675 22.9443 34.4 22.9443 34.24C22.9443 34.0957 22.9207 33.983 22.8735 33.899C22.8262 33.8177 22.758 33.7574 22.6662 33.718C22.5744 33.6787 22.4748 33.6603 22.3646 33.6603C22.223 33.6603 22.0997 33.6866 21.9921 33.7338C21.8898 33.781 21.8033 33.8544 21.7325 33.9488C21.6748 34.0275 21.6249 34.1429 21.5882 34.2898C21.5462 34.4446 21.5174 34.6833 21.499 35.0085C21.4885 35.1659 21.478 35.4754 21.4649 35.937C21.318 35.9344 21.1921 35.9318 21.0872 35.9318C20.9875 35.9318 20.8485 35.9318 20.6675 35.937L20.6544 35.9344Z" fill="#9A7040"/>
<path d="M24.3187 35.9344C24.3475 35.6564 24.3685 35.4229 24.379 35.2367C24.3974 34.9403 24.4157 34.5993 24.4289 34.2111C24.442 33.8229 24.4525 33.4557 24.4603 33.1069C24.6413 33.1121 24.7777 33.1121 24.8669 33.1121C24.9508 33.1121 25.0846 33.1121 25.2734 33.1069C25.2472 33.4295 25.2262 33.7364 25.2131 34.0302C25.1974 34.3239 25.1869 34.6597 25.179 35.0374C25.1738 35.4151 25.1685 35.7141 25.1685 35.9344C24.998 35.9318 24.8616 35.9292 24.7593 35.9292C24.6623 35.9292 24.5154 35.9292 24.3187 35.9344Z" fill="#9A7040"/>
<path d="M25.8216 35.9344C25.8636 35.5148 25.9003 35.0426 25.9292 34.518C25.958 33.9934 25.9738 33.5239 25.979 33.1069C26.1495 33.1121 26.2859 33.1121 26.3908 33.1121C26.5115 33.1121 26.64 33.1121 26.7764 33.1069L26.7475 33.5816C26.8026 33.5003 26.8551 33.4348 26.897 33.3875C26.939 33.3403 26.9967 33.2931 27.0649 33.2459C27.1331 33.1987 27.2039 33.162 27.28 33.1357C27.3561 33.1069 27.4426 33.0859 27.5371 33.0675C27.6315 33.0518 27.7311 33.0413 27.8361 33.0413C27.9987 33.0413 28.1587 33.0623 28.3082 33.1043C28.4577 33.1462 28.581 33.2118 28.6728 33.3036C28.7646 33.3928 28.8249 33.4951 28.8564 33.6C28.8852 33.7075 28.901 33.8229 28.901 33.941C28.901 33.9908 28.8984 34.0721 28.8931 34.1797L28.8354 35.3941C28.8275 35.562 28.8223 35.7429 28.8223 35.9344C28.678 35.9318 28.5521 35.9292 28.4472 35.9292C28.3082 35.9292 28.1666 35.9292 28.0223 35.9344C28.0354 35.7744 28.0538 35.4938 28.0748 35.0925C28.0957 34.6911 28.1062 34.4262 28.1062 34.2951C28.1062 34.1508 28.0826 34.0328 28.038 33.9436C27.9908 33.8544 27.92 33.7862 27.823 33.7416C27.7259 33.6944 27.621 33.6734 27.5082 33.6734C27.3954 33.6734 27.2931 33.6944 27.1987 33.7364C27.1016 33.7784 27.0203 33.8413 26.9495 33.9226C26.8761 34.0066 26.8184 34.1088 26.779 34.2321C26.7371 34.3607 26.7056 34.5757 26.6846 34.8721C26.6662 35.137 26.6531 35.4911 26.6426 35.937C26.4984 35.9344 26.3698 35.9318 26.2544 35.9318C26.139 35.9318 25.9948 35.9318 25.8269 35.937L25.8216 35.9344Z" fill="#9A7040"/>
<path d="M29.701 33.7233C29.7272 33.5921 29.7429 33.5003 29.7482 33.4479C29.7534 33.3954 29.7666 33.3141 29.7823 33.2066C30.0341 33.1462 30.257 33.1043 30.4511 33.0807C30.6426 33.0571 30.8288 33.0439 31.0098 33.0439C31.2144 33.0439 31.4007 33.0675 31.5711 33.1148C31.7416 33.162 31.8754 33.238 31.9725 33.3403C32.0695 33.4452 32.1167 33.5948 32.1167 33.7889C32.1167 33.8938 32.1036 34.1639 32.0748 34.5967C32.0485 35.0295 32.0328 35.4754 32.0249 35.9371C31.8833 35.9344 31.7521 35.9318 31.6315 35.9318C31.5108 35.9318 31.3823 35.9318 31.2275 35.9371C31.2511 35.7141 31.2695 35.4544 31.2852 35.1607L31.322 34.4708C31.2511 34.518 31.1987 34.5495 31.162 34.5679C31.1252 34.5862 31.0833 34.6046 31.0387 34.6203C30.9915 34.6361 30.9102 34.6597 30.7947 34.6911C30.6767 34.7226 30.5849 34.7515 30.5141 34.7751C30.4433 34.7987 30.3803 34.8249 30.3252 34.8564C30.2675 34.8879 30.2203 34.9193 30.1836 34.9587C30.1443 34.998 30.1154 35.0374 30.0997 35.0767C30.0813 35.1187 30.0734 35.1633 30.0734 35.2105C30.0734 35.2866 30.0944 35.3548 30.1416 35.4098C30.1862 35.4649 30.2439 35.5043 30.3121 35.5252C30.3803 35.5489 30.4616 35.5593 30.5534 35.5593C30.6138 35.5593 30.6767 35.5541 30.7423 35.5462C30.8079 35.5357 30.897 35.5148 31.0098 35.478C30.9705 35.583 30.9233 35.743 30.8708 35.9528C30.7397 35.9738 30.6348 35.9895 30.5561 35.9948C30.48 36 30.4066 36.0026 30.341 36.0026C30.1075 36.0026 29.9161 35.9711 29.7639 35.9082C29.6144 35.8452 29.5043 35.7456 29.4334 35.6092C29.3626 35.4728 29.3259 35.3338 29.3259 35.1948C29.3259 35.1161 29.339 35.0374 29.3679 34.9587C29.3967 34.88 29.4361 34.8092 29.4911 34.7436C29.5462 34.678 29.6144 34.6177 29.6984 34.5574C29.7823 34.4971 29.9082 34.4393 30.0682 34.3816C30.2282 34.3239 30.4433 34.2689 30.7056 34.2111C30.7764 34.1954 30.8498 34.1771 30.9259 34.1561C31.002 34.1351 31.0623 34.1141 31.1069 34.0931C31.1515 34.0721 31.1908 34.0459 31.2249 34.0144C31.259 33.9803 31.2826 33.9489 31.2984 33.9121C31.3141 33.8754 31.322 33.8413 31.322 33.802C31.322 33.7285 31.2984 33.6682 31.2511 33.6184C31.2039 33.5685 31.1436 33.5318 31.0675 33.5134C30.9915 33.4951 30.9102 33.4846 30.8184 33.4846C30.4826 33.4846 30.1102 33.5633 29.7036 33.7233H29.701Z" fill="#981E22"/>
<path d="M4.88788 32.3226C4.88788 32.5797 4.68066 32.7869 4.42361 32.7869C4.16656 32.7869 3.95935 32.5797 3.95935 32.3226C3.95935 32.0656 4.16656 31.8584 4.42361 31.8584C4.68066 31.8584 4.88788 32.0656 4.88788 32.3226Z" fill="#981E22"/>
<path d="M4.88788 32.3226C4.88788 32.5797 4.68066 32.7869 4.42361 32.7869C4.16656 32.7869 3.95935 32.5797 3.95935 32.3226C3.95935 32.0656 4.16656 31.8584 4.42361 31.8584C4.68066 31.8584 4.88788 32.0656 4.88788 32.3226Z" fill="#981E22"/>
<path d="M25.3443 32.3226C25.3443 32.5797 25.1371 32.7869 24.88 32.7869C24.623 32.7869 24.4157 32.5797 24.4157 32.3226C24.4157 32.0656 24.623 31.8584 24.88 31.8584C25.1371 31.8584 25.3443 32.0656 25.3443 32.3226Z" fill="#9A7040"/>
<path d="M15.0597 24.5902C15.0597 24.5902 12.4918 24.5036 12.017 24.5482V25.6184H15.0597V24.5902Z" fill="#981E22"/>
<path d="M7.72852 14.0197H9.52786V13.0334L7.72852 13.057V14.0197Z" fill="#981E22"/>
<path d="M23.697 23.4911C23.7757 23.2944 23.5711 23.3075 23.5711 23.3075H23.0177C22.9548 23.3705 22.5587 24.1416 22.5587 24.1416V24.2938L23.3954 24.3541L23.6944 23.4911H23.697Z" fill="#981E22"/>
<path d="M5.88197 26.817V28.2125H7.33508C7.33508 28.2125 7.76787 28.1679 7.76787 28.6059V29.9226H21.381C21.6748 29.9121 21.9685 29.9043 22.2623 29.8964V29.1489C22.2623 29.1489 22.2623 28.9548 22.3987 28.9548H23.1016C23.1016 28.9548 23.2616 28.9548 23.2616 29.1489V29.8859C23.8859 29.8859 24.5049 29.8964 25.1266 29.9226H31.8413V12.8341H31.0098C31.0098 12.8341 30.8289 12.7895 30.8289 12.6374V12.0289C30.8289 12.0289 30.8498 11.8531 31.0098 11.8531H31.8413V7.00852H30.3725C30.3725 7.00852 30.1207 7.02951 30.1207 6.76721V5.21967H31.8387V3.26557H30.1207V5.13311H28.5075C28.5075 5.13311 28.2138 5.17508 28.2138 4.84984V3.26557H3.99606V26.4682H5.51737C5.51737 26.4682 5.87934 26.4682 5.87934 26.817H5.88197ZM9.35738 26.5338H8.51541C8.51541 26.5338 8.42623 26.4918 8.42623 26.3816V21.322C8.42623 21.322 8.47082 21.1698 8.26623 21.2774C8.26623 21.2774 7.3141 21.7338 6.58754 20.9049C6.58754 20.9049 6.26754 20.6872 6.54295 20.5561C6.54295 20.5561 6.67672 20.3803 6.88393 20.4249C6.88393 20.4249 8.74623 20.4905 9.85836 18.7016C9.85836 18.7016 10.3593 18.2426 10.2885 18.9193C10.2885 18.9193 10.1521 19.5725 9.35738 20.577V26.5338ZM15.878 26.4682C15.878 26.4682 11.9252 26.3607 11.1987 26.379L11.1777 23.7639L15.878 23.8085V26.4682ZM15.4479 21.6682C15.4479 21.6682 15.2459 22.0616 14.6295 22.017H11.9934C11.9934 22.017 11.4951 22.1272 11.4243 21.6682C11.4243 21.6682 11.3351 21.2984 11.9698 21.3193L14.8341 21.4085C14.8341 21.4085 15.6525 21.3639 15.4452 21.6682H15.4479ZM15.5161 22.8459C15.5161 22.8459 15.5161 23.3469 14.6531 23.1948C14.6531 23.1948 12.2007 23.1738 11.857 23.1948C11.857 23.1948 11.6315 23.1528 11.5607 22.8459C11.5607 22.8459 11.5161 22.4761 11.9489 22.4761C11.9489 22.4761 14.1967 22.5416 14.8131 22.5207C14.8131 22.5207 15.5607 22.4997 15.5161 22.8485V22.8459ZM17.4492 20.3593C17.4492 20.3593 17.3338 20.9705 16.8118 20.9705C16.8118 20.9705 15.2905 20.9915 14.1757 20.8393C14.1757 20.8393 13.1528 20.7974 12.539 20.863C12.539 20.863 10.6295 20.9495 10.4485 20.9495C10.4485 20.9495 9.85836 21.057 9.92656 20.4249C9.92656 20.4249 9.90295 20.0551 10.4485 20.0761L16.72 20.1626C16.72 20.1626 17.562 20.0761 17.4466 20.3593H17.4492ZM14.9731 19.5305C14.9731 19.5305 12.0197 19.4649 11.7915 19.5095C11.7915 19.5095 11.4505 19.5725 11.3823 19.2262C11.3823 19.2262 11.3823 18.8774 11.7915 18.8538L14.8839 18.8328C14.8839 18.8328 15.4505 18.7882 15.4059 19.158C15.4059 19.158 15.4505 19.5515 14.9757 19.5305H14.9731ZM29.2866 26.0984C29.2393 26.5993 28.762 26.6859 28.762 26.6859C27.1961 26.9928 26.7187 25.7941 26.7187 25.7941C26.6741 25.5082 26.1049 26.0092 26.1049 26.0092C25.7167 26.5548 25.2866 26.7305 25.2866 26.7305C24.2898 26.838 24.0144 26.1639 24.0144 26.1639C23.697 25.4662 24.9246 25.4662 24.9246 25.4662C25.9475 25.3141 26.2203 24.4197 26.2203 24.4197C25.5148 22.0616 25.5384 20.7108 25.5384 20.7108H21.4492C21.2866 20.7108 21.2656 20.9285 21.2656 20.9285V22.5652H22.2859V21.9987H21.9239C21.5357 21.9987 21.5148 21.6472 21.5148 21.6472C21.5148 21.322 21.8557 21.322 21.8557 21.322H24.5836C25.1056 21.322 25.0164 21.6918 25.0164 21.6918C25.0164 22.0852 24.6282 21.9987 24.6282 21.9987H23.2197V22.6098H25.2393C25.6695 22.6098 25.5567 23.0243 25.5567 23.0243C25.5567 23.3311 25.2157 23.3311 25.2157 23.3311H24.2846C24.3056 23.8557 24.0118 24.5954 24.0118 24.5954L24.5128 24.7711C24.9666 24.9652 24.6492 25.2931 24.6492 25.2931C24.3764 25.5764 23.6944 25.2695 23.6944 25.2695C23.1489 26.0984 22.1495 26.3187 22.1495 26.3187C21.061 26.2295 21.1974 25.7495 21.1974 25.7495C21.2866 25.3561 21.8793 25.5082 21.8793 25.5082C22.3803 25.4426 22.9023 24.918 22.9023 24.918L21.7193 24.7213C21.4938 24.6348 21.583 24.459 21.583 24.459L22.0157 23.478C22.1521 23.3023 21.8584 23.3023 21.8584 23.3023H21.2682C20.9062 25.7049 19.8597 25.9856 19.8597 25.9856C18.6557 26.0721 18.5429 25.2013 18.5429 25.2013C18.4066 24.7659 18.8629 24.8734 18.8629 24.8734C19.6341 25.0256 20.1351 23.9108 20.1351 23.9108C20.3843 23.5384 20.4052 19.8767 20.4052 19.8767C20.838 19.5279 21.36 19.9843 21.36 19.9843L25.5331 20.021L25.5121 18.5915H26.299V20.0026L27.7679 19.9843C27.7679 19.9843 28.4079 19.6957 28.6203 19.9843C28.6203 19.9843 29.0898 20.4931 28.4289 20.6374C28.4289 20.6374 27.9384 20.7607 27.4295 20.7213L26.3226 20.7423C26.3226 20.7423 26.2098 22.4997 26.7423 23.5226C26.821 23.7298 26.9993 23.6354 26.9993 23.6354C27.217 23.4833 27.5738 22.3843 27.5738 22.3843C27.6708 21.9095 28.0669 21.8911 28.0669 21.8911C28.5233 21.9095 28.4236 22.3082 28.4236 22.3082C28.4052 23.0111 27.5554 24.2046 27.5554 24.2046C27.2984 24.5456 27.5948 24.7344 27.5948 24.7344C27.8308 25.0754 28.8354 25.4636 28.8354 25.4636C29.4046 25.7469 29.2918 26.0957 29.2918 26.0957L29.2866 26.0984ZM27.0859 18.9849C27.0859 18.9849 27.5554 18.3921 27.8544 18.5757C27.8544 18.5757 28.2584 18.9639 27.8308 19.4544C27.8308 19.4544 27.5974 20.0682 26.9364 19.8243C26.9364 19.8243 26.64 19.4754 27.0859 18.9849ZM18.9626 13.0833C18.9626 13.0833 22.2649 13.419 23.2144 10.8223H20.0616C20.0616 10.8223 19.4111 10.9666 19.5633 10.2452C19.5633 10.2452 19.6184 9.90688 20.2925 9.88328H23.3193V8.27803H20.9141C20.9141 8.27803 20.5128 8.25443 20.4629 7.82164C20.4629 7.82164 20.3633 7.29443 20.8905 7.29443L26.8682 7.41246C26.8682 7.41246 27.7679 7.41246 27.1934 8.01311C27.1934 8.01311 27.0675 8.32525 26.118 8.32525H24.2426V9.88852H27.7207C27.7207 9.88852 28.421 9.83869 28.1954 10.2715C28.1954 10.2715 28.2689 10.8485 27.2957 10.8485H24.5941C24.5941 10.8485 26.0682 12.5797 28.5967 13.419C28.5967 13.419 28.8957 13.5397 29.0715 13.4925C29.0715 13.4925 29.722 13.3718 29.5961 13.9961C29.5961 13.9961 29.3469 14.5495 27.8964 14.8118C27.8964 14.8118 27.5711 14.9561 26.7685 14.282C26.7685 14.282 24.4682 12.3384 23.9174 11.4702C23.9174 11.4702 23.2931 14.1141 20.2138 14.3056C20.2138 14.3056 18.8629 14.4026 18.6138 13.6813C18.6138 13.6813 18.2387 13.1777 18.9626 13.0807V13.0833ZM18.3777 17.4951H19.0229V18.1141H18.3777V17.4951ZM15.1856 7.78229C15.1856 7.78229 15.6551 7.18951 15.9515 7.37311C15.9515 7.37311 16.3554 7.76131 15.9279 8.2518C15.9279 8.2518 15.8518 8.64 15.1908 8.39344C15.1908 8.39344 14.737 8.27016 15.1829 7.78229H15.1856ZM11.2092 8.73443L13.937 8.75803C13.937 8.75803 14.0866 8.80525 14.0866 8.46951V7.17115H14.8131L14.8603 8.49311C14.8603 8.49311 14.8866 8.7318 15.1095 8.7318H16.2846C16.2846 8.7318 16.5836 8.75541 16.5836 8.94951C16.5836 8.94951 16.7331 9.52393 16.2348 9.52393H14.8839C14.8839 9.52393 14.96 10.4131 15.1331 11.0846C15.1331 11.0846 15.2852 11.5174 15.259 11.638C15.259 11.638 15.6367 10.4131 15.9593 10.4603C15.9593 10.4603 16.3344 10.3895 16.2085 10.8433C16.2085 10.8433 16.1351 11.6144 15.9069 12.2151C15.9069 12.2151 15.6813 12.7895 16.0826 13.1016C16.0826 13.1016 16.5338 13.5108 17.1344 13.7731C17.1344 13.7731 17.9108 14.1115 17.4361 14.4708C17.4361 14.4708 17.3102 14.9508 16.3607 14.9036C16.3607 14.9036 16.0354 14.783 15.259 13.8466C15.259 13.8466 15.0597 13.5816 14.8577 13.9672C14.8577 13.9672 14.5325 14.6151 13.7088 14.4944C13.7088 14.4944 13.3102 14.5416 12.9325 14.1823C12.9325 14.1823 12.6833 13.8938 13.0846 13.7731C13.0846 13.7731 14.3593 13.1751 14.661 12.6925C14.661 12.6925 14.0866 10.122 14.2098 9.54492H12.0328V10.24C12.0328 10.24 12.0564 10.3633 12.2348 10.3633H13.4361C13.4361 10.3633 13.7115 10.3134 13.7115 10.5548L13.7377 12.501C13.7377 12.501 13.6118 13.3167 13.1869 13.3167H12.5102C12.5102 13.3167 12.1849 13.461 12.0826 12.9574C12.0826 12.9574 12.0092 12.5744 12.1089 12.5482H12.8328V10.9875H12.0564C12.0564 10.9875 12.1823 12.981 11.6577 13.823C11.6577 13.823 11.4321 14.3029 10.4826 14.0643V14.6649H6.75278V12.2623L10.2807 12.3095C10.2807 12.3095 10.5325 12.1495 10.5062 12.4774L10.5325 13.2957C10.5325 13.2957 11.0072 13.2957 11.1305 12.3829C11.1305 12.3829 11.3062 10.8931 11.2066 8.7318L11.2092 8.73443ZM7.55541 10.9193C7.55541 10.9193 9.75606 10.6544 10.1574 11.04C10.1574 11.04 10.4066 11.5672 9.78229 11.5908C9.78229 11.5908 7.48196 11.6144 7.28 11.6879C7.28 11.6879 6.83147 11.6879 7.00459 11.3285C7.00459 11.3285 7.13049 10.8957 7.55541 10.9193ZM7.45574 9.74164C7.80459 9.64459 9.73246 9.71803 9.73246 9.71803C10.2833 9.71803 10.1311 10.0538 10.1311 10.0538C10.0551 10.4393 9.73246 10.4393 9.73246 10.4393C9.08196 10.4866 7.45574 10.4629 7.45574 10.4629C7.18033 10.3921 7.13049 10.1036 7.13049 10.1036C7.00459 9.74164 7.45574 9.74164 7.45574 9.74164ZM7.3036 7.45967H9.95803C10.6557 7.45967 10.4826 7.84262 10.4826 7.84262C10.3331 8.2282 9.9318 8.13115 9.9318 8.13115C7.63147 8.2518 7.25639 8.15738 7.25639 8.15738C6.88131 8.20459 6.8341 7.84525 6.8341 7.84525C6.75803 7.41246 7.30623 7.46229 7.30623 7.46229L7.3036 7.45967ZM6.83147 8.46951C6.83147 8.46951 10.1574 8.37508 10.7318 8.39606C10.7318 8.39606 11.1829 8.39607 10.9338 8.80262C10.9338 8.80262 10.7816 9.30885 10.2334 9.30885C10.2334 9.30885 7.70754 9.21443 6.7318 9.33508C6.7318 9.33508 6.28065 9.45574 6.28065 8.97311C6.28065 8.97311 6.20721 8.44328 6.8341 8.46951H6.83147Z" fill="#981E22"/>
<path fill-rule="evenodd" clip-rule="evenodd" d="M31.8754 0H30.1233V1.92H31.8754V0Z" fill="#981E22"/>
<path fill-rule="evenodd" clip-rule="evenodd" d="M28.2164 0H26.4643V1.92H28.2164V0Z" fill="#981E22"/>
</g>
<defs>
<clipPath id="clip0_439_7626">
<rect width="36" height="36" fill="white"/>
</clipPath>
</defs>
</svg>
